o Default
v 0 -0.5 1
v 0 0 0
v 1 0 0
v 1 -0.5 1
v -1 -0.5 1
v 0 0 0
v -1 0 0
v 0 -0.5 1
v -1 -1 2
v 0 -0.5 1
v -1 -0.5 1
v 0 -1 2
v 0 -1 2
v 1 -0.5 1
v 0 -0.5 1
v 1 -1 2
v -1 -1.5 3
v 0 -1 2
v -1 -1 2
v 0 -1.5 3
v 0 -1.5 3
v 1 -1 2
v 0 -1 2
v 1 -1.5 3
v -1 -2 4
v 0 -1.5 3
v -1 -1.5 3
v 0 -2 4
v 0 -2 4
v 1 -1.5 3
v 0 -1.5 3
v 1 -2 4
v -1 -2.5 5
v 0 -2 4
v -1 -2 4
v 0 -2.5 5
v 0 -2.5 5
v 1 -2 4
v 0 -2 4
v 1 -2.5 5
v -1 -3 6
v 0 -2.5 5
v -1 -2.5 5
v 0 -3 6
v 0 -3 6
v 1 -2.5 5
v 0 -2.5 5
v 1 -3 6
v -1 -3.5 7
v 0 -3 6
v -1 -3 6
v 0 -3.5 7
v 0 -3.5 7
v 1 -3 6
v 0 -3 6
v 1 -3.5 7
v 0 -4 8
v 1 -3.5 7
v 0 -3.5 7
v 1 -4 8
v -1 -4 8
v 0 -3.5 7
v -1 -3.5 7
v 0 -4 8
v -1 -4.5 9
v 0 -4 8
v -1 -4 8
v 0 -4.5 9
v 0 -4.5 9
v 1 -4 8
v 0 -4 8
v 1 -4.5 9
v 0 -5 10
v 1 -4.5 9
v 0 -4.5 9
v 1 -5 10
v -1 -5 10
v 0 -4.5 9
v -1 -4.5 9
v 0 -5 10
v -1 -5 0
v -1 -4 1
v -1 -4 0
v -1 -5 1
v -1 -4 0
v -1 -3 1
v -1 -3 0
v -1 -4 1
v -1 -3 0
v -1 -2 1
v -1 -2 0
v -1 -3 1
v -1 -2 0
v -1 -1 1
v -1 -1 0
v -1 -2 1
v -1 -2 1
v -1 -1 2
v -1 -1 1
v -1 -2 2
v -1 -3 1
v -1 -2 2
v -1 -2 1
v -1 -3 2
v -1 -4 1
v -1 -3 2
v -1 -3 1
v -1 -4 2
v -1 -5 1
v -1 -4 2
v -1 -4 1
v -1 -5 2
v -1 -3 2
v -1 -2 3
v -1 -2 2
v -1 -3 3
v -1 -4 2
v -1 -3 3
v -1 -3 2
v -1 -4 3
v -1 -5 2
v -1 -4 3
v -1 -4 2
v -1 -5 3
v -1 -5 3
v -1 -4 4
v -1 -4 3
v -1 -5 4
v -1 -4 3
v -1 -3 4
v -1 -3 3
v -1 -4 4
v -1 -3 3
v -1 -2 4
v -1 -2 3
v -1 -3 4
v -1 -4 4
v -1 -3 5
v -1 -3 4
v -1 -4 5
v -1 -5 4
v -1 -4 5
v -1 -4 4
v -1 -5 5
v -1 -5 5
v -1 -4 6
v -1 -4 5
v -1 -5 6
v -1 -4 5
v -1 -3 6
v -1 -3 5
v -1 -4 6
v -1 -5 6
v -1 -4 7
v -1 -4 6
v -1 -5 7
v -1 -5 7
v -1 -4 8
v -1 -4 7
v -1 -5 8
v 1 -5 1
v 1 -4 0
v 1 -4 1
v 1 -5 0
v 1 -4 1
v 1 -3 0
v 1 -3 1
v 1 -4 0
v 1 -4 2
v 1 -3 1
v 1 -3 2
v 1 -4 1
v 1 -3 2
v 1 -2 1
v 1 -2 2
v 1 -3 1
v 1 -3 1
v 1 -2 0
v 1 -2 1
v 1 -3 0
v 1 -2 1
v 1 -1 0
v 1 -1 1
v 1 -2 0
v 1 -2 2
v 1 -1 1
v 1 -1 2
v 1 -2 1
v 1 -5 2
v 1 -4 1
v 1 -4 2
v 1 -5 1
v 1 -3 3
v 1 -2 2
v 1 -2 3
v 1 -3 2
v 1 -4 3
v 1 -3 2
v 1 -3 3
v 1 -4 2
v 1 -5 3
v 1 -4 2
v 1 -4 3
v 1 -5 2
v 1 -5 4
v 1 -4 3
v 1 -4 4
v 1 -5 3
v 1 -4 4
v 1 -3 3
v 1 -3 4
v 1 -4 3
v 1 -3 4
v 1 -2 3
v 1 -2 4
v 1 -3 3
v 1 -4 5
v 1 -3 4
v 1 -3 5
v 1 -4 4
v 1 -5 5
v 1 -4 4
v 1 -4 5
v 1 -5 4
v 1 -5 6
v 1 -4 5
v 1 -4 6
v 1 -5 5
v 1 -4 6
v 1 -3 5
v 1 -3 6
v 1 -4 5
v 1 -5 7
v 1 -4 6
v 1 -4 7
v 1 -5 6
v 1 -5 8
v 1 -4 7
v 1 -4 8
v 1 -5 7
v 1 -1 0.5
v 1 -0.5 0
v 1 -0.5 0.5
v 1 -1 0
v 1 -1 1.5
v 1 -0.5 1
v 1 -0.75 1.5
v 1 -1 1
v 1 -0.5 1
v 1 -0.25 0.5
v 1 -0.5 1
v 1 -0.5 0.5
v 1 -0.5 0.5
v 1 0 0
v 1 -0.25 0.5
v 1 -0.5 0
v 1 -1 1
v 1 -0.5 0.5
v 1 -0.5 1
v 1 -1 0.5
v 1 -1 2
v 1 -0.75 1.5
v 1 -1 2
v 1 -1 1.5
v 1 -2 3.5
v 1 -1.5 3
v 1 -1.75 3.5
v 1 -2 3
v 1 -2 4
v 1 -1.75 3.5
v 1 -2 4
v 1 -2 3.5
v 1 -1.5 3
v 1 -1.25 2.5
v 1 -1.5 3
v 1 -1.5 2.5
v 1 -1.5 2.5
v 1 -1 2
v 1 -1.25 2.5
v 1 -1.5 2
v 1 -2 2.5
v 1 -1.5 2
v 1 -1.5 2.5
v 1 -2 2
v 1 -2 3
v 1 -1.5 2.5
v 1 -1.5 3
v 1 -2 2.5
v 1 -3 5.5
v 1 -2.5 5
v 1 -2.75 5.5
v 1 -3 5
v 1 -3 6
v 1 -2.75 5.5
v 1 -3 6
v 1 -3 5.5
v 1 -2.5 5
v 1 -2.25 4.5
v 1 -2.5 5
v 1 -2.5 4.5
v 1 -2.5 4.5
v 1 -2 4
v 1 -2.25 4.5
v 1 -2.5 4
v 1 -3 4.5
v 1 -2.5 4
v 1 -2.5 4.5
v 1 -3 4
v 1 -3 5
v 1 -2.5 4.5
v 1 -2.5 5
v 1 -3 4.5
v 1 -4 7.5
v 1 -3.5 7
v 1 -3.75 7.5
v 1 -4 7
v 1 -4 8
v 1 -3.75 7.5
v 1 -4 8
v 1 -4 7.5
v 1 -3.5 7
v 1 -3.25 6.5
v 1 -3.5 7
v 1 -3.5 6.5
v 1 -3.5 6.5
v 1 -3 6
v 1 -3.25 6.5
v 1 -3.5 6
v 1 -4 6.5
v 1 -3.5 6
v 1 -3.5 6.5
v 1 -4 6
v 1 -4 7
v 1 -3.5 6.5
v 1 -3.5 7
v 1 -4 6.5
v 1 -5 9.5
v 1 -4.5 9
v 1 -4.75 9.5
v 1 -5 9
v 1 -5 10
v 1 -4.75 9.5
v 1 -5 10
v 1 -5 9.5
v 1 -4.5 9
v 1 -4.25 8.5
v 1 -4.5 9
v 1 -4.5 8.5
v 1 -4.5 8.5
v 1 -4 8
v 1 -4.25 8.5
v 1 -4.5 8
v 1 -5 8.5
v 1 -4.5 8
v 1 -4.5 8.5
v 1 -5 8
v 1 -5 9
v 1 -4.5 8.5
v 1 -4.5 9
v 1 -5 8.5
v -1 -1 0.5
v -1 -0.5 1
v -1 -0.5 0.5
v -1 -1 1
v -1 -1 1.5
v -1 -1 2
v -1 -0.75 1.5
v -1 -1 2
v -1 -0.5 0.5
v -1 -0.5 1
v -1 -0.25 0.5
v -1 -0.5 1
v -1 -1 0
v -1 -0.5 0.5
v -1 -0.5 0
v -1 -1 0.5
v -1 -1 1
v -1 -0.75 1.5
v -1 -0.5 1
v -1 -1 1.5
v -1 -0.5 0
v -1 -0.25 0.5
v -1 0 0
v -1 -0.5 0.5
v -1 -0.5 0
v -1 -0.25 0.5
v -1 0 0
v -1 -0.5 0.5
v -1 -1 0
v -1 -0.5 0.5
v -1 -0.5 0
v -1 -1 0.5
v -1 -0.5 0.5
v -1 -0.5 1
v -1 -0.25 0.5
v -1 -0.5 1
v -1 -1 0.5
v -1 -0.5 1
v -1 -0.5 0.5
v -1 -1 1
v -1 -1 1
v -1 -0.75 1.5
v -1 -0.5 1
v -1 -1 1.5
v -1 -1 1.5
v -1 -1 2
v -1 -0.75 1.5
v -1 -1 2
v -1 -1.5 2
v -1 -1.25 2.5
v -1 -1 2
v -1 -1.5 2.5
v -1 -2 2
v -1 -1.5 2.5
v -1 -1.5 2
v -1 -2 2.5
v -1 -1.5 2.5
v -1 -1.5 3
v -1 -1.25 2.5
v -1 -1.5 3
v -1 -2 2.5
v -1 -1.5 3
v -1 -1.5 2.5
v -1 -2 3
v -1 -2 3
v -1 -1.75 3.5
v -1 -1.5 3
v -1 -2 3.5
v -1 -2 3.5
v -1 -2 4
v -1 -1.75 3.5
v -1 -2 4
v -1 -1.5 2
v -1 -1.25 2.5
v -1 -1 2
v -1 -1.5 2.5
v -1 -2 2
v -1 -1.5 2.5
v -1 -1.5 2
v -1 -2 2.5
v -1 -1.5 2.5
v -1 -1.5 3
v -1 -1.25 2.5
v -1 -1.5 3
v -1 -2 2.5
v -1 -1.5 3
v -1 -1.5 2.5
v -1 -2 3
v -1 -2 3
v -1 -1.75 3.5
v -1 -1.5 3
v -1 -2 3.5
v -1 -2 3.5
v -1 -2 4
v -1 -1.75 3.5
v -1 -2 4
v -1 -2.5 4
v -1 -2.25 4.5
v -1 -2 4
v -1 -2.5 4.5
v -1 -3 4
v -1 -2.5 4.5
v -1 -2.5 4
v -1 -3 4.5
v -1 -2.5 4.5
v -1 -2.5 5
v -1 -2.25 4.5
v -1 -2.5 5
v -1 -3 4.5
v -1 -2.5 5
v -1 -2.5 4.5
v -1 -3 5
v -1 -3 5
v -1 -2.75 5.5
v -1 -2.5 5
v -1 -3 5.5
v -1 -3 5.5
v -1 -3 6
v -1 -2.75 5.5
v -1 -3 6
v -1 -2.5 4
v -1 -2.25 4.5
v -1 -2 4
v -1 -2.5 4.5
v -1 -3 4
v -1 -2.5 4.5
v -1 -2.5 4
v -1 -3 4.5
v -1 -2.5 4.5
v -1 -2.5 5
v -1 -2.25 4.5
v -1 -2.5 5
v -1 -3 4.5
v -1 -2.5 5
v -1 -2.5 4.5
v -1 -3 5
v -1 -3 5
v -1 -2.75 5.5
v -1 -2.5 5
v -1 -3 5.5
v -1 -3 5.5
v -1 -3 6
v -1 -2.75 5.5
v -1 -3 6
v -1 -3.5 6
v -1 -3.25 6.5
v -1 -3 6
v -1 -3.5 6.5
v -1 -4 6
v -1 -3.5 6.5
v -1 -3.5 6
v -1 -4 6.5
v -1 -3.5 6.5
v -1 -3.5 7
v -1 -3.25 6.5
v -1 -3.5 7
v -1 -4 6.5
v -1 -3.5 7
v -1 -3.5 6.5
v -1 -4 7
v -1 -4 7
v -1 -3.75 7.5
v -1 -3.5 7
v -1 -4 7.5
v -1 -4 7.5
v -1 -4 8
v -1 -3.75 7.5
v -1 -4 8
v -1 -3.5 6
v -1 -3.25 6.5
v -1 -3 6
v -1 -3.5 6.5
v -1 -4 6
v -1 -3.5 6.5
v -1 -3.5 6
v -1 -4 6.5
v -1 -3.5 6.5
v -1 -3.5 7
v -1 -3.25 6.5
v -1 -3.5 7
v -1 -4 6.5
v -1 -3.5 7
v -1 -3.5 6.5
v -1 -4 7
v -1 -4 7
v -1 -3.75 7.5
v -1 -3.5 7
v -1 -4 7.5
v -1 -4 7.5
v -1 -4 8
v -1 -3.75 7.5
v -1 -4 8
v -1 -4.5 8
v -1 -4.25 8.5
v -1 -4 8
v -1 -4.5 8.5
v -1 -5 8
v -1 -4.5 8.5
v -1 -4.5 8
v -1 -5 8.5
v -1 -4.5 8.5
v -1 -4.5 9
v -1 -4.25 8.5
v -1 -4.5 9
v -1 -5 8.5
v -1 -4.5 9
v -1 -4.5 8.5
v -1 -5 9
v -1 -5 9
v -1 -4.75 9.5
v -1 -4.5 9
v -1 -5 9.5
v -1 -5 9.5
v -1 -5 10
v -1 -4.75 9.5
v -1 -5 10
v -1 -4.5 8
v -1 -4.25 8.5
v -1 -4 8
v -1 -4.5 8.5
v -1 -5 8
v -1 -4.5 8.5
v -1 -4.5 8
v -1 -5 8.5
v -1 -4.5 8.5
v -1 -4.5 9
v -1 -4.25 8.5
v -1 -4.5 9
v -1 -5 8.5
v -1 -4.5 9
v -1 -4.5 8.5
v -1 -5 9
v -1 -5 9
v -1 -4.75 9.5
v -1 -4.5 9
v -1 -5 9.5
v -1 -5 9.5
v -1 -5 10
v -1 -4.75 9.5
v -1 -5 10
vt 0.0625 0.6875
vt 0.125 0.75
vt 0.0625 0.75
vt 0.125 0.6875
vt 0 0.6875
vt 0 0.75
vt 0 0.875
vt 0.0625 0.9375
vt 0 0.9375
vt 0.0625 0.875
vt 0.03125 0.875
vt 0.0625 0.90625
vt 0.03125 0.90625
vt 0 0.90625
vt 0.03125 0.9375
vn 0 0.89442719 0.4472136
vn -1 0 0
vn 1 0 0
vn 0 0 0
g Scene
usemtl 0
f 1/1/1 3/2/1 2/3/1
f 1/1/1 4/4/1 3/2/1
f 5/5/1 6/3/1 7/6/1
f 5/5/1 8/1/1 6/3/1
f 9/5/1 10/3/1 11/6/1
f 9/5/1 12/1/1 10/3/1
f 13/1/1 14/2/1 15/3/1
f 13/1/1 16/4/1 14/2/1
f 17/5/1 18/3/1 19/6/1
f 17/5/1 20/1/1 18/3/1
f 21/1/1 22/2/1 23/3/1
f 21/1/1 24/4/1 22/2/1
f 25/5/1 26/3/1 27/6/1
f 25/5/1 28/1/1 26/3/1
f 29/1/1 30/2/1 31/3/1
f 29/1/1 32/4/1 30/2/1
f 33/5/1 34/3/1 35/6/1
f 33/5/1 36/1/1 34/3/1
f 37/1/1 38/2/1 39/3/1
f 37/1/1 40/4/1 38/2/1
f 41/5/1 42/3/1 43/6/1
f 41/5/1 44/1/1 42/3/1
f 45/1/1 46/2/1 47/3/1
f 45/1/1 48/4/1 46/2/1
f 49/5/1 50/3/1 51/6/1
f 49/5/1 52/1/1 50/3/1
f 53/1/1 54/2/1 55/3/1
f 53/1/1 56/4/1 54/2/1
f 57/1/1 58/2/1 59/3/1
f 57/1/1 60/4/1 58/2/1
f 61/5/1 62/3/1 63/6/1
f 61/5/1 64/1/1 62/3/1
f 65/5/1 66/3/1 67/6/1
f 65/5/1 68/1/1 66/3/1
f 69/1/1 70/2/1 71/3/1
f 69/1/1 72/4/1 70/2/1
f 73/1/1 74/2/1 75/3/1
f 73/1/1 76/4/1 74/2/1
f 77/5/1 78/3/1 79/6/1
f 77/5/1 80/1/1 78/3/1
f 81/7/2 82/8/2 83/9/2
f 81/7/2 84/10/2 82/8/2
f 85/7/2 86/8/2 87/9/2
f 85/7/2 88/10/2 86/8/2
f 89/7/2 90/8/2 91/9/2
f 89/7/2 92/10/2 90/8/2
f 93/7/2 94/8/2 95/9/2
f 93/7/2 96/10/2 94/8/2
f 97/7/2 98/8/2 99/9/2
f 97/7/2 100/10/2 98/8/2
f 101/7/2 102/8/2 103/9/2
f 101/7/2 104/10/2 102/8/2
f 105/7/2 106/8/2 107/9/2
f 105/7/2 108/10/2 106/8/2
f 109/7/2 110/8/2 111/9/2
f 109/7/2 112/10/2 110/8/2
f 113/7/2 114/8/2 115/9/2
f 113/7/2 116/10/2 114/8/2
f 117/7/2 118/8/2 119/9/2
f 117/7/2 120/10/2 118/8/2
f 121/7/2 122/8/2 123/9/2
f 121/7/2 124/10/2 122/8/2
f 125/7/2 126/8/2 127/9/2
f 125/7/2 128/10/2 126/8/2
f 129/7/2 130/8/2 131/9/2
f 129/7/2 132/10/2 130/8/2
f 133/7/2 134/8/2 135/9/2
f 133/7/2 136/10/2 134/8/2
f 137/7/2 138/8/2 139/9/2
f 137/7/2 140/10/2 138/8/2
f 141/7/2 142/8/2 143/9/2
f 141/7/2 144/10/2 142/8/2
f 145/7/2 146/8/2 147/9/2
f 145/7/2 148/10/2 146/8/2
f 149/7/2 150/8/2 151/9/2
f 149/7/2 152/10/2 150/8/2
f 153/7/2 154/8/2 155/9/2
f 153/7/2 156/10/2 154/8/2
f 157/7/2 158/8/2 159/9/2
f 157/7/2 160/10/2 158/8/2
f 161/7/3 162/8/3 163/9/3
f 161/7/3 164/10/3 162/8/3
f 165/7/3 166/8/3 167/9/3
f 165/7/3 168/10/3 166/8/3
f 169/7/3 170/8/3 171/9/3
f 169/7/3 172/10/3 170/8/3
f 173/7/3 174/8/3 175/9/3
f 173/7/3 176/10/3 174/8/3
f 177/7/3 178/8/3 179/9/3
f 177/7/3 180/10/3 178/8/3
f 181/7/3 182/8/3 183/9/3
f 181/7/3 184/10/3 182/8/3
f 185/7/3 186/8/3 187/9/3
f 185/7/3 188/10/3 186/8/3
f 189/7/3 190/8/3 191/9/3
f 189/7/3 192/10/3 190/8/3
f 193/7/3 194/8/3 195/9/3
f 193/7/3 196/10/3 194/8/3
f 197/7/3 198/8/3 199/9/3
f 197/7/3 200/10/3 198/8/3
f 201/7/3 202/8/3 203/9/3
f 201/7/3 204/10/3 202/8/3
f 205/7/3 206/8/3 207/9/3
f 205/7/3 208/10/3 206/8/3
f 209/7/3 210/8/3 211/9/3
f 209/7/3 212/10/3 210/8/3
f 213/7/3 214/8/3 215/9/3
f 213/7/3 216/10/3 214/8/3
f 217/7/3 218/8/3 219/9/3
f 217/7/3 220/10/3 218/8/3
f 221/7/3 222/8/3 223/9/3
f 221/7/3 224/10/3 222/8/3
f 225/7/3 226/8/3 227/9/3
f 225/7/3 228/10/3 226/8/3
f 229/7/3 230/8/3 231/9/3
f 229/7/3 232/10/3 230/8/3
f 233/7/3 234/8/3 235/9/3
f 233/7/3 236/10/3 234/8/3
f 237/7/3 238/8/3 239/9/3
f 237/7/3 240/10/3 238/8/3
f 241/11/3 242/12/3 243/13/3
f 241/11/3 244/10/3 242/12/3
f 245/11/3 246/12/3 247/13/3
f 245/11/3 248/10/3 246/12/3
f 249/14/4 250/15/4 251/9/4
f 249/14/3 252/13/3 250/15/3
f 253/13/3 254/8/3 255/15/3
f 253/13/3 256/12/3 254/8/3
f 257/7/3 258/13/3 259/14/3
f 257/7/3 260/11/3 258/13/3
f 261/7/4 262/13/4 263/14/4
f 261/7/3 264/11/3 262/13/3
f 265/11/3 266/12/3 267/13/3
f 265/11/3 268/10/3 266/12/3
f 269/7/4 270/13/4 271/14/4
f 269/7/3 272/11/3 270/13/3
f 273/14/4 274/15/4 275/9/4
f 273/14/3 276/13/3 274/15/3
f 277/13/3 278/8/3 279/15/3
f 277/13/3 280/12/3 278/8/3
f 281/11/3 282/12/3 283/13/3
f 281/11/3 284/10/3 282/12/3
f 285/7/3 286/13/3 287/14/3
f 285/7/3 288/11/3 286/13/3
f 289/11/3 290/12/3 291/13/3
f 289/11/3 292/10/3 290/12/3
f 293/7/4 294/13/4 295/14/4
f 293/7/3 296/11/3 294/13/3
f 297/14/4 298/15/4 299/9/4
f 297/14/3 300/13/3 298/15/3
f 301/13/3 302/8/3 303/15/3
f 301/13/3 304/12/3 302/8/3
f 305/11/3 306/12/3 307/13/3
f 305/11/3 308/10/3 306/12/3
f 309/7/3 310/13/3 311/14/3
f 309/7/3 312/11/3 310/13/3
f 313/11/3 314/12/3 315/13/3
f 313/11/3 316/10/3 314/12/3
f 317/7/4 318/13/4 319/14/4
f 317/7/3 320/11/3 318/13/3
f 321/14/4 322/15/4 323/9/4
f 321/14/3 324/13/3 322/15/3
f 325/13/3 326/8/3 327/15/3
f 325/13/3 328/12/3 326/8/3
f 329/11/3 330/12/3 331/13/3
f 329/11/3 332/10/3 330/12/3
f 333/7/3 334/13/3 335/14/3
f 333/7/3 336/11/3 334/13/3
f 337/11/3 338/12/3 339/13/3
f 337/11/3 340/10/3 338/12/3
f 341/7/4 342/13/4 343/14/4
f 341/7/3 344/11/3 342/13/3
f 345/14/4 346/15/4 347/9/4
f 345/14/3 348/13/3 346/15/3
f 349/13/3 350/8/3 351/15/3
f 349/13/3 352/12/3 350/8/3
f 353/11/3 354/12/3 355/13/3
f 353/11/3 356/10/3 354/12/3
f 357/7/3 358/13/3 359/14/3
f 357/7/3 360/11/3 358/13/3
f 361/11/2 362/12/2 363/13/2
f 361/11/2 364/10/2 362/12/2
f 365/11/2 366/12/2 367/13/2
f 365/11/4 368/10/4 366/12/4
f 369/13/2 370/8/2 371/15/2
f 369/13/4 372/12/4 370/8/4
f 373/7/2 374/13/2 375/14/2
f 373/7/2 376/11/2 374/13/2
f 377/7/2 378/13/2 379/14/2
f 377/7/2 380/11/2 378/13/2
f 381/14/2 382/15/2 383/9/2
f 381/14/2 384/13/2 382/15/2
f 385/14/2 386/15/2 387/9/2
f 385/14/2 388/13/2 386/15/2
f 389/7/2 390/13/2 391/14/2
f 389/7/2 392/11/2 390/13/2
f 393/13/2 394/8/2 395/15/2
f 393/13/4 396/12/4 394/8/4
f 397/11/2 398/12/2 399/13/2
f 397/11/2 400/10/2 398/12/2
f 401/7/2 402/13/2 403/14/2
f 401/7/2 404/11/2 402/13/2
f 405/11/2 406/12/2 407/13/2
f 405/11/4 408/10/4 406/12/4
f 409/14/2 410/15/2 411/9/2
f 409/14/2 412/13/2 410/15/2
f 413/7/2 414/13/2 415/14/2
f 413/7/2 416/11/2 414/13/2
f 417/13/2 418/8/2 419/15/2
f 417/13/4 420/12/4 418/8/4
f 421/11/2 422/12/2 423/13/2
f 421/11/2 424/10/2 422/12/2
f 425/7/2 426/13/2 427/14/2
f 425/7/2 428/11/2 426/13/2
f 429/11/2 430/12/2 431/13/2
f 429/11/4 432/10/4 430/12/4
f 433/14/2 434/15/2 435/9/2
f 433/14/2 436/13/2 434/15/2
f 437/7/2 438/13/2 439/14/2
f 437/7/2 440/11/2 438/13/2
f 441/13/2 442/8/2 443/15/2
f 441/13/4 444/12/4 442/8/4
f 445/11/2 446/12/2 447/13/2
f 445/11/2 448/10/2 446/12/2
f 449/7/2 450/13/2 451/14/2
f 449/7/2 452/11/2 450/13/2
f 453/11/2 454/12/2 455/13/2
f 453/11/4 456/10/4 454/12/4
f 457/14/2 458/15/2 459/9/2
f 457/14/2 460/13/2 458/15/2
f 461/7/2 462/13/2 463/14/2
f 461/7/2 464/11/2 462/13/2
f 465/13/2 466/8/2 467/15/2
f 465/13/4 468/12/4 466/8/4
f 469/11/2 470/12/2 471/13/2
f 469/11/2 472/10/2 470/12/2
f 473/7/2 474/13/2 475/14/2
f 473/7/2 476/11/2 474/13/2
f 477/11/2 478/12/2 479/13/2
f 477/11/4 480/10/4 478/12/4
f 481/14/2 482/15/2 483/9/2
f 481/14/2 484/13/2 482/15/2
f 485/7/2 486/13/2 487/14/2
f 485/7/2 488/11/2 486/13/2
f 489/13/2 490/8/2 491/15/2
f 489/13/4 492/12/4 490/8/4
f 493/11/2 494/12/2 495/13/2
f 493/11/2 496/10/2 494/12/2
f 497/7/2 498/13/2 499/14/2
f 497/7/2 500/11/2 498/13/2
f 501/11/2 502/12/2 503/13/2
f 501/11/4 504/10/4 502/12/4
f 505/14/2 506/15/2 507/9/2
f 505/14/2 508/13/2 506/15/2
f 509/7/2 510/13/2 511/14/2
f 509/7/2 512/11/2 510/13/2
f 513/13/2 514/8/2 515/15/2
f 513/13/4 516/12/4 514/8/4
f 517/11/2 518/12/2 519/13/2
f 517/11/2 520/10/2 518/12/2
f 521/7/2 522/13/2 523/14/2
f 521/7/2 524/11/2 522/13/2
f 525/11/2 526/12/2 527/13/2
f 525/11/4 528/10/4 526/12/4
f 529/14/2 530/15/2 531/9/2
f 529/14/2 532/13/2 530/15/2
f 533/7/2 534/13/2 535/14/2
f 533/7/2 536/11/2 534/13/2
f 537/13/2 538/8/2 539/15/2
f 537/13/4 540/12/4 538/8/4
f 541/11/2 542/12/2 543/13/2
f 541/11/2 544/10/2 542/12/2
f 545/7/2 546/13/2 547/14/2
f 545/7/2 548/11/2 546/13/2
f 549/11/2 550/12/2 551/13/2
f 549/11/4 552/10/4 550/12/4
f 553/14/2 554/15/2 555/9/2
f 553/14/2 556/13/2 554/15/2
f 557/7/2 558/13/2 559/14/2
f 557/7/2 560/11/2 558/13/2
f 561/13/2 562/8/2 563/15/2
f 561/13/4 564/12/4 562/8/4
f 565/11/2 566/12/2 567/13/2
f 565/11/2 568/10/2 566/12/2
f 569/7/2 570/13/2 571/14/2
f 569/7/2 572/11/2 570/13/2
f 573/11/2 574/12/2 575/13/2
f 573/11/4 576/10/4 574/12/4
f 577/14/2 578/15/2 579/9/2
f 577/14/2 580/13/2 578/15/2
f 581/7/2 582/13/2 583/14/2
f 581/7/2 584/11/2 582/13/2
f 585/13/2 586/8/2 587/15/2
f 585/13/4 588/12/4 586/8/4
f 589/11/2 590/12/2 591/13/2
f 589/11/2 592/10/2 590/12/2
f 593/7/2 594/13/2 595/14/2
f 593/7/2 596/11/2 594/13/2
f 597/11/2 598/12/2 599/13/2
f 597/11/4 600/10/4 598/12/4
