mtllib material.mtl
o Default
v 5 -1 -20
v 5 -1 -21
v 6 -1.5 -21
v 6 -1.5 -20
v 0 1.5 -20
v 1 1 -21
v 0 1.5 -21
v 1 1 -20
v -1 2 -20
v 0 1.5 -21
v -1 2 -21
v 0 1.5 -20
v 6.5 -2 -19
v 7 -2 -19
v 6.5 -1.75 -19
v 7 -2 -19
v 6 -2 -19
v 6.5 -1.75 -19
v 6 -1.5 -19
v 6.5 -2 -19
v 5.5 -2 -19
v 6 -1.5 -19
v 5.5 -1.5 -19
v 6 -2 -19
v 5.5 -1.5 -19
v 6 -1.5 -19
v 5.5 -1.25 -19
v 6 -1.5 -19
v 5 -2 -19
v 5.5 -1.5 -19
v 5 -1.5 -19
v 5.5 -2 -19
v 5 -1.5 -19
v 5.5 -1.25 -19
v 5 -1 -19
v 5.5 -1.5 -19
v 4.5 -1 -19
v 5 -1 -19
v 4.5 -0.75 -19
v 5 -1 -19
v 4 -1 -19
v 4.5 -0.75 -19
v 4 -0.5 -19
v 4.5 -1 -19
v 3.5 -1 -19
v 4 -0.5 -19
v 3.5 -0.5 -19
v 4 -1 -19
v 3.5 -0.5 -19
v 4 -0.5 -19
v 3.5 -0.25 -19
v 4 -0.5 -19
v 3 -1 -19
v 3.5 -0.5 -19
v 3 -0.5 -19
v 3.5 -1 -19
v 3 -0.5 -19
v 3.5 -0.25 -19
v 3 0 -19
v 3.5 -0.5 -19
v 2.5 0 -19
v 3 0 -19
v 2.5 0.25 -19
v 3 0 -19
v 2 0 -19
v 2.5 0.25 -19
v 2 0.5 -19
v 2.5 0 -19
v 1.5 0 -19
v 2 0.5 -19
v 1.5 0.5 -19
v 2 0 -19
v 1.5 0.5 -19
v 2 0.5 -19
v 1.5 0.75 -19
v 2 0.5 -19
v 1 0 -19
v 1.5 0.5 -19
v 1 0.5 -19
v 1.5 0 -19
v 1 0.5 -19
v 1.5 0.75 -19
v 1 1 -19
v 1.5 0.5 -19
v -1 1.5 -19
v -0.5 1.75 -19
v -1 2 -19
v -0.5 1.5 -19
v 0 1 -19
v 0.5 1.25 -19
v 0 1.5 -19
v 0.5 1 -19
v -1 1 -19
v -0.5 1.5 -19
v -1 1.5 -19
v -0.5 1 -19
v -0.5 1.5 -19
v 0 1.5 -19
v -0.5 1.75 -19
v 0 1.5 -19
v 0.5 1 -19
v 1 1 -19
v 0.5 1.25 -19
v 1 1 -19
v -0.5 1 -19
v 0 1.5 -19
v -0.5 1.5 -19
v 0 1 -19
v 5.5 -1.5 -21
v 5 -1 -21
v 5.5 -1.25 -21
v 5 -1.5 -21
v 6 -1.5 -21
v 5.5 -1.25 -21
v 6 -1.5 -21
v 5.5 -1.5 -21
v 5.5 -2 -21
v 5 -1.5 -21
v 5.5 -1.5 -21
v 5 -2 -21
v 6 -2 -21
v 5.5 -1.5 -21
v 6 -1.5 -21
v 5.5 -2 -21
v 7 -2 -21
v 6.5 -1.75 -21
v 7 -2 -21
v 6.5 -2 -21
v 6.5 -2 -21
v 6 -1.5 -21
v 6.5 -1.75 -21
v 6 -2 -21
v 3.5 -0.5 -21
v 3 0 -21
v 3.5 -0.25 -21
v 3 -0.5 -21
v 4 -0.5 -21
v 3.5 -0.25 -21
v 4 -0.5 -21
v 3.5 -0.5 -21
v 3.5 -1 -21
v 3 -0.5 -21
v 3.5 -0.5 -21
v 3 -1 -21
v 4 -1 -21
v 3.5 -0.5 -21
v 4 -0.5 -21
v 3.5 -1 -21
v 5 -1 -21
v 4.5 -0.75 -21
v 5 -1 -21
v 4.5 -1 -21
v 4.5 -1 -21
v 4 -0.5 -21
v 4.5 -0.75 -21
v 4 -1 -21
v 1.5 0.5 -21
v 1 1 -21
v 1.5 0.75 -21
v 1 0.5 -21
v 2 0.5 -21
v 1.5 0.75 -21
v 2 0.5 -21
v 1.5 0.5 -21
v 1.5 0 -21
v 1 0.5 -21
v 1.5 0.5 -21
v 1 0 -21
v 2 0 -21
v 1.5 0.5 -21
v 2 0.5 -21
v 1.5 0 -21
v 3 0 -21
v 2.5 0.25 -21
v 3 0 -21
v 2.5 0 -21
v 2.5 0 -21
v 2 0.5 -21
v 2.5 0.25 -21
v 2 0 -21
v 1 1 -21
v 0.5 1.25 -21
v 1 1 -21
v 0.5 1 -21
v 0 1 -21
v -0.5 1.5 -21
v 0 1.5 -21
v -0.5 1 -21
v -0.5 1.5 -21
v -1 2 -21
v -0.5 1.75 -21
v -1 1.5 -21
v 0 1.5 -21
v -0.5 1.75 -21
v 0 1.5 -21
v -0.5 1.5 -21
v 0.5 1 -21
v 0 1.5 -21
v 0.5 1.25 -21
v 0 1 -21
v -0.5 1 -21
v -1 1.5 -21
v -0.5 1.5 -21
v -1 1 -21
v 5 -2 -21
v 4 -1 -21
v 5 -1 -21
v 4 -2 -21
v 4 -2 -21
v 3 -1 -21
v 4 -1 -21
v 3 -2 -21
v 3 -2 -21
v 2 -1 -21
v 3 -1 -21
v 2 -2 -21
v 3 -1 -21
v 2 0 -21
v 3 0 -21
v 2 -1 -21
v 2 -1 -21
v 1 0 -21
v 2 0 -21
v 1 -1 -21
v 2 -2 -21
v 1 -1 -21
v 2 -1 -21
v 1 -2 -21
v 1 -2 -21
v 0 -1 -21
v 1 -1 -21
v 0 -2 -21
v 1 -1 -21
v 0 0 -21
v 1 0 -21
v 0 -1 -21
v 1 0 -21
v 0 1 -21
v 1 1 -21
v 0 0 -21
v 0 0 -21
v -1 1 -21
v 0 1 -21
v -1 0 -21
v 0 -1 -21
v -1 0 -21
v 0 0 -21
v -1 -1 -21
v 0 -2 -21
v -1 -1 -21
v 0 -1 -21
v -1 -2 -21
v 4 -2 -19
v 5 -1 -19
v 4 -1 -19
v 5 -2 -19
v 3 -2 -19
v 4 -1 -19
v 3 -1 -19
v 4 -2 -19
v 2 -1 -19
v 3 0 -19
v 2 0 -19
v 3 -1 -19
v 2 -2 -19
v 3 -1 -19
v 2 -1 -19
v 3 -2 -19
v 1 -1 -19
v 2 0 -19
v 1 0 -19
v 2 -1 -19
v 1 -2 -19
v 2 -1 -19
v 1 -1 -19
v 2 -2 -19
v 0 0 -19
v 1 1 -19
v 0 1 -19
v 1 0 -19
v -1 0 -19
v 0 1 -19
v -1 1 -19
v 0 0 -19
v -1 -1 -19
v 0 0 -19
v -1 0 -19
v 0 -1 -19
v 0 -1 -19
v 1 0 -19
v 0 0 -19
v 1 -1 -19
v 0 -2 -19
v 1 -1 -19
v 0 -1 -19
v 1 -2 -19
v -1 -2 -19
v 0 -1 -19
v -1 -1 -19
v 0 -2 -19
v 5 -1 -19
v 6 -1.5 -20
v 5 -1 -20
v 6 -1.5 -19
v 1 1 -20
v 2 0.5 -21
v 1 1 -21
v 2 0.5 -20
v 4 -0.5 -19
v 5 -1 -20
v 4 -0.5 -20
v 5 -1 -19
v 4 -0.5 -20
v 5 -1 -21
v 4 -0.5 -21
v 5 -1 -20
v 3 0 -19
v 4 -0.5 -20
v 3 0 -20
v 4 -0.5 -19
v 3 0 -20
v 4 -0.5 -21
v 3 0 -21
v 4 -0.5 -20
v 2 0.5 -19
v 3 0 -20
v 2 0.5 -20
v 3 0 -19
v 2 0.5 -20
v 3 0 -21
v 2 0.5 -21
v 3 0 -20
v 1 1 -19
v 2 0.5 -20
v 1 1 -20
v 2 0.5 -19
v 0 1.5 -19
v 1 1 -20
v 0 1.5 -20
v 1 1 -19
v -1 2 -19
v 0 1.5 -20
v -1 2 -20
v 0 1.5 -19
v 6 -1.5 -19
v 7 -2 -20
v 6 -1.5 -20
v 7 -2 -19
v 6 -1.5 -20
v 7 -2 -21
v 6 -1.5 -21
v 7 -2 -20
vt 0.0625 0.75
vt 0.125 0.6875
vt 0.125 0.75
vt 0.0625 0.6875
vt 0.03125 0.875
vt 0.0625 0.90625
vt 0.03125 0.90625
vt 0.0625 0.875
vt 0 0.875
vt 0 0.90625
vt 0.0625 0.9375
vt 0.03125 0.9375
vt 0 0.9375
vt 0 0.75
vt 0 0.6875
vn 0.4472136 0.89442719 0
vn 0 0 1
vn 0 0 0
vn 0 0 -1
g Object 17124
usemtl 0
f 1/1/1 3/2/1 2/3/1
f 1/1/1 4/4/1 3/2/1
f 5/1/1 6/2/1 7/3/1
f 5/1/1 8/4/1 6/2/1
f 9/1/1 10/2/1 11/3/1
f 9/1/1 12/4/1 10/2/1
f 13/5/2 14/6/2 15/7/2
f 13/5/3 16/8/3 14/6/3
f 17/9/2 18/7/2 19/10/2
f 17/9/2 20/5/2 18/7/2
f 21/5/2 22/6/2 23/7/2
f 21/5/2 24/8/2 22/6/2
f 25/7/2 26/11/2 27/12/2
f 25/7/3 28/6/3 26/11/3
f 29/9/2 30/7/2 31/10/2
f 29/9/2 32/5/2 30/7/2
f 33/10/2 34/12/2 35/13/2
f 33/10/2 36/7/2 34/12/2
f 37/5/2 38/6/2 39/7/2
f 37/5/3 40/8/3 38/6/3
f 41/9/2 42/7/2 43/10/2
f 41/9/2 44/5/2 42/7/2
f 45/5/2 46/6/2 47/7/2
f 45/5/2 48/8/2 46/6/2
f 49/7/2 50/11/2 51/12/2
f 49/7/3 52/6/3 50/11/3
f 53/9/2 54/7/2 55/10/2
f 53/9/2 56/5/2 54/7/2
f 57/10/2 58/12/2 59/13/2
f 57/10/2 60/7/2 58/12/2
f 61/5/2 62/6/2 63/7/2
f 61/5/3 64/8/3 62/6/3
f 65/9/2 66/7/2 67/10/2
f 65/9/2 68/5/2 66/7/2
f 69/5/2 70/6/2 71/7/2
f 69/5/2 72/8/2 70/6/2
f 73/7/2 74/11/2 75/12/2
f 73/7/3 76/6/3 74/11/3
f 77/9/2 78/7/2 79/10/2
f 77/9/2 80/5/2 78/7/2
f 81/10/2 82/12/2 83/13/2
f 81/10/2 84/7/2 82/12/2
f 85/10/2 86/12/2 87/13/2
f 85/10/2 88/7/2 86/12/2
f 89/9/2 90/7/2 91/10/2
f 89/9/2 92/5/2 90/7/2
f 93/9/2 94/7/2 95/10/2
f 93/9/2 96/5/2 94/7/2
f 97/7/2 98/11/2 99/12/2
f 97/7/3 100/6/3 98/11/3
f 101/5/2 102/6/2 103/7/2
f 101/5/3 104/8/3 102/6/3
f 105/5/2 106/6/2 107/7/2
f 105/5/2 108/8/2 106/6/2
f 109/7/4 110/11/4 111/12/4
f 109/7/4 112/6/4 110/11/4
f 113/10/3 114/12/3 115/13/3
f 113/10/4 116/7/4 114/12/4
f 117/5/4 118/6/4 119/7/4
f 117/5/4 120/8/4 118/6/4
f 121/9/4 122/7/4 123/10/4
f 121/9/4 124/5/4 122/7/4
f 125/9/3 126/7/3 127/10/3
f 125/9/4 128/5/4 126/7/4
f 129/5/4 130/6/4 131/7/4
f 129/5/4 132/8/4 130/6/4
f 133/7/4 134/11/4 135/12/4
f 133/7/4 136/6/4 134/11/4
f 137/10/3 138/12/3 139/13/3
f 137/10/4 140/7/4 138/12/4
f 141/5/4 142/6/4 143/7/4
f 141/5/4 144/8/4 142/6/4
f 145/9/4 146/7/4 147/10/4
f 145/9/4 148/5/4 146/7/4
f 149/9/3 150/7/3 151/10/3
f 149/9/4 152/5/4 150/7/4
f 153/5/4 154/6/4 155/7/4
f 153/5/4 156/8/4 154/6/4
f 157/7/4 158/11/4 159/12/4
f 157/7/4 160/6/4 158/11/4
f 161/10/3 162/12/3 163/13/3
f 161/10/4 164/7/4 162/12/4
f 165/5/4 166/6/4 167/7/4
f 165/5/4 168/8/4 166/6/4
f 169/9/4 170/7/4 171/10/4
f 169/9/4 172/5/4 170/7/4
f 173/9/3 174/7/3 175/10/3
f 173/9/4 176/5/4 174/7/4
f 177/5/4 178/6/4 179/7/4
f 177/5/4 180/8/4 178/6/4
f 181/9/3 182/7/3 183/10/3
f 181/9/4 184/5/4 182/7/4
f 185/9/4 186/7/4 187/10/4
f 185/9/4 188/5/4 186/7/4
f 189/7/4 190/11/4 191/12/4
f 189/7/4 192/6/4 190/11/4
f 193/10/3 194/12/3 195/13/3
f 193/10/4 196/7/4 194/12/4
f 197/5/4 198/6/4 199/7/4
f 197/5/4 200/8/4 198/6/4
f 201/5/4 202/6/4 203/7/4
f 201/5/4 204/8/4 202/6/4
f 205/9/4 206/11/4 207/13/4
f 205/9/4 208/8/4 206/11/4
f 209/9/4 210/11/4 211/13/4
f 209/9/4 212/8/4 210/11/4
f 213/9/4 214/11/4 215/13/4
f 213/9/4 216/8/4 214/11/4
f 217/9/4 218/11/4 219/13/4
f 217/9/4 220/8/4 218/11/4
f 221/9/4 222/11/4 223/13/4
f 221/9/4 224/8/4 222/11/4
f 225/9/4 226/11/4 227/13/4
f 225/9/4 228/8/4 226/11/4
f 229/9/4 230/11/4 231/13/4
f 229/9/4 232/8/4 230/11/4
f 233/9/4 234/11/4 235/13/4
f 233/9/4 236/8/4 234/11/4
f 237/9/4 238/11/4 239/13/4
f 237/9/4 240/8/4 238/11/4
f 241/9/4 242/11/4 243/13/4
f 241/9/4 244/8/4 242/11/4
f 245/9/4 246/11/4 247/13/4
f 245/9/4 248/8/4 246/11/4
f 249/9/4 250/11/4 251/13/4
f 249/9/4 252/8/4 250/11/4
f 253/9/2 254/11/2 255/13/2
f 253/9/2 256/8/2 254/11/2
f 257/9/2 258/11/2 259/13/2
f 257/9/2 260/8/2 258/11/2
f 261/9/2 262/11/2 263/13/2
f 261/9/2 264/8/2 262/11/2
f 265/9/2 266/11/2 267/13/2
f 265/9/2 268/8/2 266/11/2
f 269/9/2 270/11/2 271/13/2
f 269/9/2 272/8/2 270/11/2
f 273/9/2 274/11/2 275/13/2
f 273/9/2 276/8/2 274/11/2
f 277/9/2 278/11/2 279/13/2
f 277/9/2 280/8/2 278/11/2
f 281/9/2 282/11/2 283/13/2
f 281/9/2 284/8/2 282/11/2
f 285/9/2 286/11/2 287/13/2
f 285/9/2 288/8/2 286/11/2
f 289/9/2 290/11/2 291/13/2
f 289/9/2 292/8/2 290/11/2
f 293/9/2 294/11/2 295/13/2
f 293/9/2 296/8/2 294/11/2
f 297/9/2 298/11/2 299/13/2
f 297/9/2 300/8/2 298/11/2
f 301/14/1 302/4/1 303/1/1
f 301/14/1 304/15/1 302/4/1
f 305/1/1 306/2/1 307/3/1
f 305/1/1 308/4/1 306/2/1
f 309/14/1 310/4/1 311/1/1
f 309/14/1 312/15/1 310/4/1
f 313/1/1 314/2/1 315/3/1
f 313/1/1 316/4/1 314/2/1
f 317/14/1 318/4/1 319/1/1
f 317/14/1 320/15/1 318/4/1
f 321/1/1 322/2/1 323/3/1
f 321/1/1 324/4/1 322/2/1
f 325/14/1 326/4/1 327/1/1
f 325/14/1 328/15/1 326/4/1
f 329/1/1 330/2/1 331/3/1
f 329/1/1 332/4/1 330/2/1
f 333/14/1 334/4/1 335/1/1
f 333/14/1 336/15/1 334/4/1
f 337/14/1 338/4/1 339/1/1
f 337/14/1 340/15/1 338/4/1
f 341/14/1 342/4/1 343/1/1
f 341/14/1 344/15/1 342/4/1
f 345/14/1 346/4/1 347/1/1
f 345/14/1 348/15/1 346/4/1
f 349/1/1 350/2/1 351/3/1
f 349/1/1 352/4/1 350/2/1
